:SAMPLES-PER-SECOND 30
:FULLY-SPECIFIED
:DEGREES
594
root  5.2995 30.4543 -47.8458 -78.2457 -7.02646 94.1719
Spine  8.35943 20.9763 -1.5752
Spine1  5.31317 -11.5391 0.813071
Neck  3.97569e-016 0 -2.38542e-015
Head  -12.0846 -11.8345 8.84778
R_Clavicle  0.289811 -5.00957 1.29032
R_UpperArm  31.3744 29.0365 -6.2577
R_Forearm  -13.4287 -45.6258 30.5981
R_Hand  -0.613013 8.37378 -16.034
L_Clavicle  -0.645402 19.2672 -3.21558
L_UpperArm  -13.9769 18.2231 34.6925
L_Forearm  1.53213 35.8441 39.831
L_Hand  -0.0904671 0.338954 -1.73758
L_Thigh  11.9569 1.7433 15.6163
L_Calf  6.91588 -3.41255 25.9968
L_Foot  -1.98154 8.18357 -14.9604
L_Toe0  0.504811 0.0392505 -6.13636
R_Thigh  3.02175 9.22852 -34.1183
R_Calf  1.64072 9.37116 30.3511
R_Foot  -0.657982 3.90427 21.5556
R_Toe0  -1.81382 -0.278316 -17.5817
595
root  4.85487 29.9312 -48.7577 -73.9597 -6.15973 89.9832
Spine  7.87664 17.4958 0.454058
Spine1  4.83163 -12.8623 1.15169
Neck  3.97569e-016 0 -2.38542e-015
Head  -17.6249 -10.0669 7.39976
R_Clavicle  0.218927 -5.94833 0.756137
R_UpperArm  35.1344 27.2469 1.41779
R_Forearm  -13.2549 -45.7519 32.3271
R_Hand  -0.387016 8.4193 -14.3696
L_Clavicle  -0.603698 18.47 -3.44232
L_UpperArm  -9.84535 14.0744 27.7846
L_Forearm  -8.60149 29.6811 36
L_Hand  -0.208456 -0.633139 -4.91708
L_Thigh  10.8896 -4.40841 16.321
L_Calf  10.0338 -2.79622 20.8581
L_Foot  -1.74725 9.75751 -14.7887
L_Toe0  0.504778 0.0397956 -6.13639
R_Thigh  1.75429 7.16447 -34.5586
R_Calf  7.02365 8.0232 26.0236
R_Foot  1.32911 8.03999 23.6949
R_Toe0  -1.74802 -0.156457 -15.3771
596
root  4.32344 29.4564 -49.5986 -73.0237 -4.56117 84.9806
Spine  7.74809 12.2313 2.67047
Spine1  5.15148 -14.3158 1.47017
Neck  3.97569e-016 0 -2.38542e-015
Head  -21.9745 -8.45096 5.67516
R_Clavicle  0.162901 -7.89144 0.140701
R_UpperArm  34.1125 23.8269 8.95787
R_Forearm  -9.45474 -45.9403 29.4632
R_Hand  0.0373383 7.43256 -10.5488
L_Clavicle  -0.546573 17.4231 -4.01075
L_UpperArm  -12.3122 11.7294 21.7856
L_Forearm  -11.9341 22.1223 28.4103
L_Hand  -0.291635 -0.029992 -5.95761
L_Thigh  5.94857 -9.24586 17.0016
L_Calf  11.0664 -2.04572 15.4263
L_Foot  -0.191569 11.4 -10.0626
L_Toe0  0.504761 0.0401671 -6.1364
R_Thigh  0.655932 2.941 -29.7836
R_Calf  8.71698 3.68461 11.5193
R_Foot  3.5368 12.0874 19.2867
R_Toe0  0.81405 -0.518737 -2.94987
597
root  3.76131 28.9589 -50.4702 -73.8645 -4.09331 81.0211
Spine  7.12506 7.51888 3.97355
Spine1  5.02456 -14.3122 2.94888
Neck  3.97569e-016 0 -2.38542e-015
Head  -23.6568 -8.06133 3.35055
R_Clavicle  0.145454 -10.7587 -0.511876
R_UpperArm  29.6894 20.6051 14.2491
R_Forearm  -6.21764 -46.0259 25.3297
R_Hand  0.446349 6.4358 -6.19972
L_Clavicle  -0.530226 17.1598 -4.08882
L_UpperArm  -16.7974 8.80406 15.3656
L_Forearm  -10.5778 15.7948 19.0593
L_Hand  -0.340166 1.02453 -5.80236
L_Thigh  -0.453197 -11.4272 17.1963
L_Calf  11.6725 -1.23951 9.75709
L_Foot  1.57247 13.3215 -5.32615
L_Toe0  0.504763 0.0403168 -6.1364
R_Thigh  0.657616 -1.08685 -23.6934
R_Calf  9.63904 -1.3738 -4.18705
R_Foot  2.5284 9.06232 8.74673
R_Toe0  9.30901 -4.02399 7.47002
598
root  3.19605 28.6748 -51.4223 -74.2001 -4.55061 78.8209
Spine  5.59272 4.60342 3.13976
Spine1  3.7935 -12.2392 5.79449
Neck  3.97569e-016 0 -2.38542e-015
Head  -23.5994 -8.51281 0.931799
R_Clavicle  0.183252 -13.5918 -0.878512
R_UpperArm  26.1171 17.1318 17.2025
R_Forearm  -5.12507 -46.1928 23.6662
R_Hand  0.697416 7.09029 -4.91971
L_Clavicle  -0.538683 17.3795 -3.61071
L_UpperArm  -16.7726 3.94512 7.1895
L_Forearm  -9.44905 11.395 13.4501
L_Hand  -0.384619 1.73222 -5.90685
L_Thigh  -4.98323 -12.083 16.1614
L_Calf  12.6774 -0.611036 5.3858
L_Foot  3.40541 15.1989 -0.86939
L_Toe0  0.504788 0.0401961 -6.13637
R_Thigh  2.9848 -3.87322 -18.4549
R_Calf  10.7383 -4.74302 -14.9336
R_Foot  0.252872 1.32728 0.55519
R_Toe0  14.3329 -5.90705 2.62162
